<svg width="89" height="40" viewBox="0 0 89 40" fill="none" xmlns="http://www.w3.org/2000/svg">
<path d="M40.6496 18.4288L40.8011 18.2774C40.8011 17.9097 40.7578 17.6501 40.6713 17.4122C40.4116 16.6119 39.6977 16.136 38.7242 16.136C37.7723 16.136 37.0584 16.6119 36.7772 17.4122C36.7123 17.6501 36.6474 17.9097 36.6474 18.2774L36.7988 18.4288H40.6496ZM33.7484 22.4088C33.5105 21.695 33.3374 20.8514 33.3374 19.6617C33.3374 18.4504 33.4888 17.6069 33.7268 16.8931C34.3975 14.8166 36.2363 13.6053 38.7026 13.6053C41.2554 13.6053 43.0293 14.8166 43.7 16.8715C43.938 17.6285 44.0894 18.4721 44.0894 20.4404C44.0894 20.5918 44.0029 20.6783 43.8298 20.6783H36.8204L36.669 20.8298C36.6906 21.0677 36.7339 21.284 36.8204 21.4787C37.1233 22.4953 38.0103 23.0144 39.2218 23.0144C40.3684 23.0144 41.2121 22.6034 41.8827 21.9761C42.0126 21.8896 42.1207 21.8464 42.2073 21.9761L43.7865 23.4686C43.9163 23.5551 43.9163 23.7066 43.8082 23.8147C42.7048 24.9827 40.9958 25.7614 38.8756 25.7614C36.2363 25.7182 34.4191 24.4852 33.7484 22.4088Z" fill="#514C4C"/>
<path d="M53.2623 25.4586C53.0893 25.4586 53.0027 25.3937 52.8946 25.2423L50.8177 22.0843H50.7961L48.7409 25.2423C48.6111 25.3937 48.5245 25.4586 48.3515 25.4586H45.2578C45.0631 25.4586 45.0199 25.3288 45.0848 25.2207L48.9789 19.4455L45.366 14.1028C45.3011 13.973 45.3444 13.8649 45.5391 13.8649H48.6543C48.8274 13.8649 48.9356 13.9082 49.0654 14.0812L50.8177 16.8066H50.8394L52.6133 14.0812C52.7431 13.9298 52.8297 13.8649 53.0027 13.8649H56.0964C56.3127 13.8649 56.356 13.9947 56.2911 14.1028L52.6782 19.4455L56.5723 25.2207C56.6372 25.3288 56.5939 25.4586 56.3776 25.4586H53.2623Z" fill="#514C4C"/>
<path d="M65.4637 21.6517C65.6151 21.1975 65.68 20.7 65.68 19.6617C65.68 18.6235 65.6151 18.126 65.4637 17.6718C65.2041 16.8282 64.5767 16.4172 63.6681 16.4172C62.7811 16.4172 62.1537 16.8282 61.8941 17.6718C61.7427 18.126 61.6778 18.6235 61.6778 19.6617C61.6778 20.7 61.7427 21.1975 61.8941 21.6517C62.1537 22.4736 62.7811 22.9062 63.6681 22.9062C64.5767 22.8846 65.2041 22.452 65.4637 21.6517ZM58.5842 28.4435C58.4327 28.4435 58.3462 28.357 58.3462 28.2056V14.1028C58.3462 13.9514 58.4327 13.8649 58.5842 13.8649H61.4398C61.5913 13.8649 61.6778 13.9514 61.6778 14.1028V14.9464H61.6994C62.2186 14.1461 63.2138 13.6053 64.7498 13.6053C66.6968 13.6053 68.0814 14.5354 68.6655 16.374C68.9467 17.2824 69.0765 18.1476 69.0765 19.6617C69.0765 21.1542 68.9467 22.041 68.6655 22.9495C68.0598 24.7664 66.6752 25.7182 64.7498 25.7182C63.2138 25.7182 62.2403 25.1774 61.6994 24.3771H61.6778V28.2056C61.6778 28.357 61.5913 28.4435 61.4398 28.4435H58.5842Z" fill="#514C4C"/>
<path d="M74.8961 25.5884C72.3434 25.5884 71.3049 24.4636 71.3049 21.9113V11.1828C71.3049 11.0313 71.3915 10.9448 71.5429 10.9448H74.4202C74.5716 10.9448 74.6582 11.0313 74.6582 11.1828V21.6517C74.6582 22.452 74.961 22.7548 75.6533 22.7548H76.1509C76.3023 22.7548 76.3889 22.8414 76.3889 22.9928V25.3721C76.3889 25.5235 76.3023 25.61 76.1509 25.61H74.8961V25.5884Z" fill="#514C4C"/>
<path d="M85.0209 21.6518C85.194 21.1326 85.2373 20.6568 85.2373 19.6618C85.2373 18.6884 85.194 18.1909 85.0209 17.6718C84.7613 16.8499 84.1123 16.4173 83.2253 16.4173C82.3384 16.4173 81.6893 16.8499 81.4297 17.6718C81.2567 18.1909 81.2134 18.6668 81.2134 19.6618C81.2134 20.6351 81.2567 21.1326 81.4297 21.6518C81.6893 22.4737 82.3384 22.9063 83.2253 22.9063C84.1123 22.8847 84.7613 22.4521 85.0209 21.6518ZM78.2063 22.4521C77.9467 21.6085 77.8169 20.8082 77.8169 19.6618C77.8169 18.5154 77.9467 17.6935 78.2063 16.8499C78.8769 14.7518 80.8024 13.5837 83.2253 13.5837C85.67 13.5837 87.5737 14.7301 88.2444 16.8499C88.504 17.6935 88.6338 18.4938 88.6338 19.6618C88.6338 20.8082 88.504 21.6301 88.2444 22.4521C87.5737 24.5502 85.6483 25.7182 83.2253 25.7182C80.7807 25.7182 78.8769 24.5718 78.2063 22.4521Z" fill="#514C4C"/>
<path d="M22.7373 4.36927L18.9514 6.55391L15.1655 8.76018L11.3796 6.55391L7.57202 4.36927L15.1655 0L22.7373 4.36927Z" fill="#FDC12C"/>
<path d="M22.7369 4.36923V8.76014L15.165 13.1294V8.76014L22.7369 4.36923Z" fill="#F8DA95"/>
<path d="M15.1655 8.76014V13.1294L7.57202 8.76014V4.36923L15.1655 8.76014Z" fill="#E69419"/>
<path d="M15.1653 13.1295L11.3794 15.3141L7.57182 17.4988L3.78591 15.3141L0 13.1295L7.57182 8.76022L15.1653 13.1295Z" fill="#AA3731"/>
<path d="M7.57182 17.4987V21.868L0 17.4987V13.1295L7.57182 17.4987Z" fill="#721D19"/>
<path d="M15.1653 26.2589L11.3794 28.4435L7.57182 30.6282L3.78591 28.4435L0 26.2589L7.57182 21.868L15.1653 26.2589Z" fill="#83C8CE"/>
<path d="M7.57182 30.6282V34.9974L0 30.6282V26.2589L7.57182 30.6282Z" fill="#5699A5"/>
<path d="M22.7373 17.4987L18.9514 19.6834L15.1655 21.868L11.3579 19.6834L7.57202 17.4987L15.1655 13.1295L22.7373 17.4987Z" fill="#669256"/>
<path d="M22.7369 17.4987V21.8679L15.165 26.2588V21.8679L22.7369 17.4987Z" fill="#B7C7AD"/>
<path d="M15.1655 21.8679V26.2588L7.57202 21.8679V17.4987L15.1655 21.8679Z" fill="#496A38"/>
<path d="M22.7373 30.6282L18.9514 32.8128L15.1655 34.9974L11.3796 32.8128L7.57202 30.6282L15.1655 26.2589L22.7373 30.6282Z" fill="#E39FA5"/>
<path d="M22.7369 30.6282V34.9975L15.165 39.3668V34.9975L22.7369 30.6282Z" fill="#EACFD1"/>
<path d="M15.1655 34.9975V39.3668L7.57202 34.9975V30.6282L15.1655 34.9975Z" fill="#B6676D"/>
</svg>
