<svg width="23" height="40" viewBox="0 0 23 40" fill="none" xmlns="http://www.w3.org/2000/svg">
<path d="M22.7373 4.36927L18.9514 6.55391L15.1655 8.76018L11.3796 6.55391L7.57202 4.36927L15.1655 0L22.7373 4.36927Z" fill="#FDC12C"/>
<path d="M22.7369 4.36923V8.76014L15.165 13.1294V8.76014L22.7369 4.36923Z" fill="#F8DA95"/>
<path d="M15.1655 8.76014V13.1294L7.57202 8.76014V4.36923L15.1655 8.76014Z" fill="#E69419"/>
<path d="M15.1653 13.1295L11.3794 15.3141L7.57182 17.4988L3.78591 15.3141L0 13.1295L7.57182 8.76022L15.1653 13.1295Z" fill="#AA3731"/>
<path d="M7.57182 17.4987V21.868L0 17.4987V13.1295L7.57182 17.4987Z" fill="#721D19"/>
<path d="M15.1653 26.2589L11.3794 28.4435L7.57182 30.6282L3.78591 28.4435L0 26.2589L7.57182 21.868L15.1653 26.2589Z" fill="#83C8CE"/>
<path d="M7.57182 30.6282V34.9974L0 30.6282V26.2589L7.57182 30.6282Z" fill="#5699A5"/>
<path d="M22.7373 17.4987L18.9514 19.6834L15.1655 21.868L11.3579 19.6834L7.57202 17.4987L15.1655 13.1295L22.7373 17.4987Z" fill="#669256"/>
<path d="M22.7369 17.4987V21.8679L15.165 26.2588V21.8679L22.7369 17.4987Z" fill="#B7C7AD"/>
<path d="M15.1655 21.8679V26.2588L7.57202 21.8679V17.4987L15.1655 21.8679Z" fill="#496A38"/>
<path d="M22.7373 30.6282L18.9514 32.8128L15.1655 34.9974L11.3796 32.8128L7.57202 30.6282L15.1655 26.2589L22.7373 30.6282Z" fill="#E39FA5"/>
<path d="M22.7369 30.6282V34.9975L15.165 39.3668V34.9975L22.7369 30.6282Z" fill="#EACFD1"/>
<path d="M15.1655 34.9975V39.3668L7.57202 34.9975V30.6282L15.1655 34.9975Z" fill="#B6676D"/>
</svg>
