<svg width="454" height="119" viewBox="0 0 454 119" fill="none" xmlns="http://www.w3.org/2000/svg">
<path d="M173.612 75.1828C172.466 75.3197 171.298 75.0448 170.45 74.0361L154.865 55.764V74.9534H147.76V46.6163C147.76 44.668 149.364 43.0627 151.312 43.0627C152.413 43.0627 153.215 43.3377 154.017 44.3007C154.017 44.3007 158.944 50.1242 169.602 62.4815V43.4067H176.706V71.6749C176.683 73.4628 175.354 74.9301 173.612 75.1828Z" fill="#F17736"/>
<path d="M189.977 74.9291C188.029 74.9291 186.424 73.3248 186.424 71.3755V46.9593C186.424 45.011 188.029 43.4057 189.977 43.4057H209.572V49.5042H193.529V55.8087H205.034C206.731 55.8087 208.106 57.1846 208.106 58.8813C208.106 60.5779 206.731 61.9072 205.034 61.9072H193.529V68.8306H209.572V74.9291H189.977Z" fill="#F17736"/>
<path d="M234.692 49.5956V74.9291H227.587V49.5956H217.273V43.3834H245.051V49.5956H234.692Z" fill="#F17736"/>
<path d="M263.821 75.4567C259.649 75.4567 255.157 74.6084 250.987 73.1868L252.269 67.685C255.914 68.6703 260.268 69.4273 263.912 69.4273C267.946 69.4273 270.307 68.4876 270.307 66.5383C270.307 64.9797 267.098 63.8788 261.117 61.1512C255.616 58.6519 252.063 56.313 252.063 51.7285C252.063 45.3773 256.142 42.9247 265.081 42.9247C268.634 42.9247 274.065 43.7274 276.77 44.529L275.739 50.2612C272.048 49.5499 268.45 49.0232 265.172 49.0232C260.727 49.0232 259.123 49.6422 259.123 51.2008C259.123 52.9431 261.07 53.6077 267.259 56.4967C273.423 59.3856 277.389 60.6692 277.389 65.965C277.411 73.1868 270.536 75.4567 263.821 75.4567Z" fill="#F17736"/>
<path d="M307.343 74.9291L293.89 61.9995V74.9291H286.785V43.4057H293.89V55.6717L306.724 43.4057H316.098L299.872 58.6976L316.716 74.9291H307.343Z" fill="#F17736"/>
<path d="M345.572 74.9291L339.131 63.6038H331.362V74.9291H324.258V46.9593C324.258 45.011 325.862 43.4057 327.809 43.4057H342.019C348.023 43.4057 352.379 47.8999 352.379 53.5398C352.379 57.5743 350.017 60.9675 346.557 62.5951L353.708 74.9524H345.572V74.9291ZM340.552 49.1379H331.362V58.0786H340.552C343.005 58.0786 345.09 56.176 345.09 53.5398C345.09 50.9025 343.028 49.1379 340.552 49.1379Z" fill="#F17736"/>
<path d="M383.892 74.9301L381.44 68.4876H369.934L367.483 74.9301H360.423L372.731 45.0567C373.258 43.773 374.472 43.0627 375.71 43.0627C376.948 43.0627 378.117 43.773 378.644 45.0567L390.951 74.9301H383.892ZM375.71 53.1044L372.021 63.0995H379.4L375.71 53.1044Z" fill="#F17736"/>
<path d="M405.481 49.5042V55.8087H417.514C419.209 55.8087 420.585 57.1846 420.585 58.8813C420.585 60.5779 419.209 61.9072 417.514 61.9072H405.481V74.9291H398.376V46.9593C398.376 45.011 399.981 43.4057 401.929 43.4057H422.418V49.5042H405.481Z" fill="#F17736"/>
<path d="M434.061 74.9291C432.112 74.9291 430.554 73.3248 430.554 71.3755V43.4057H437.613V68.8306H454V74.9291H434.061Z" fill="#F17736"/>
<path d="M28.3652 46.0264V33.2474C28.3652 32.2626 27.6557 31.0488 26.8083 30.545L15.7507 24.1555C14.9043 23.6517 13.4842 23.6517 12.6378 24.1555L1.55693 30.545C0.709539 31.0488 0 32.2626 0 33.2474V46.0264C0 47.0111 0.709539 48.2249 1.55693 48.7287L9.27161 53.1716C10.5772 53.8815 11.4702 55.2785 11.4702 56.8816V65.2864C11.4702 66.8895 10.5772 68.2865 9.27161 68.9965L4.167 71.9507L1.57922 73.4393C0.732847 73.9431 0.023316 75.1569 0.023316 76.1417V88.9206C0.023316 89.9054 0.732847 91.1192 1.57922 91.623L12.6378 98.0124C13.4842 98.5163 14.9043 98.5163 15.7507 98.0124L26.8083 91.623C27.6557 91.1192 28.3652 89.9054 28.3652 88.9206V76.1417C28.3652 75.1569 27.6557 73.9431 26.8083 73.4393L19.0936 68.9965C17.7881 68.2865 16.8961 66.8895 16.8961 65.2864V56.8816C16.8961 55.2785 17.7881 53.8815 19.0936 53.1716L26.8083 48.7287C27.679 48.2249 28.3652 47.0111 28.3652 46.0264Z" fill="#F17736"/>
<path d="M14.1937 41.4478C14.1937 40.4629 13.4842 39.2492 12.6378 38.7454L1.55693 32.3559C0.709539 31.8521 0 32.2643 0 33.249V46.028C0 47.0128 0.709539 48.2266 1.55693 48.7304L12.6145 55.1198C13.4619 55.6237 14.1715 55.2115 14.1715 54.2267L14.1937 41.4478Z" fill="#FFAA88"/>
<path d="M41.9426 50.1503L38.7143 52.0053C37.9358 52.4634 37.2719 53.5168 37.1573 54.4558V54.4787V54.5474V54.7076V58.4177C37.134 56.9978 36.3789 55.6008 35.0277 54.8222L27.7712 50.6313C26.3744 49.8297 24.7263 49.8984 23.444 50.6771L15.7283 55.1199C14.882 55.6008 14.1714 55.2115 14.1714 54.2268V41.4477C14.1714 40.463 14.882 39.2493 15.7283 38.7454L26.786 32.3559C27.0383 32.2185 27.2674 32.1498 27.4732 32.1498C27.977 32.1498 28.3429 32.562 28.3429 33.249V42.1577C28.2973 43.6463 29.0757 45.1349 30.4492 45.9365L37.7067 50.1274C39.1035 50.906 40.6827 50.8602 41.9426 50.1503Z" fill="#C94314"/>
<path d="M14.1937 84.365C14.1937 83.3803 13.4842 82.1665 12.6378 81.6626L1.55693 75.2731C0.709539 74.7694 0 75.1815 0 76.1663V88.9453C0 89.93 0.709539 91.1438 1.55693 91.6476L12.6145 98.0371C13.4619 98.5409 14.1715 98.1287 14.1715 97.144L14.1937 84.365Z" fill="#FFAA88"/>
<path d="M28.3662 88.9453C28.3662 89.93 27.6567 91.1438 26.8093 91.6476L15.7517 98.0371C14.9043 98.5409 14.1947 98.1287 14.1947 97.144V84.365C14.1947 83.3803 14.9043 82.1665 15.7517 81.6626L26.8093 75.2731C27.6567 74.7694 28.3662 75.1815 28.3662 76.1663V88.9453Z" fill="#C94314"/>
<path d="M65.5226 54.7077V67.4867C65.5226 68.4715 64.8121 69.6852 63.9657 70.1891L52.9081 76.5785C52.1519 77.0137 50.9842 77.0595 50.1145 76.7388C50.0689 76.7159 50.0233 76.7159 49.9777 76.6931C49.9544 76.6702 49.9311 76.6702 49.8854 76.6473C49.8631 76.6244 49.8165 76.6244 49.7942 76.6014L38.7366 70.212C38.6221 70.1433 38.5298 70.0745 38.4153 69.9829C38.3241 69.8914 38.2095 69.7997 38.1183 69.7081C37.5689 69.1127 37.1564 68.2424 37.1564 67.5096V58.6009C37.1564 58.5322 37.1564 58.4865 37.1564 58.4178V54.7077C37.1564 54.6619 37.1564 54.6161 37.1564 54.5474C37.1564 54.5245 37.1564 54.5016 37.1564 54.4787V54.4558C37.2486 53.5169 37.9125 52.4633 38.7133 52.0054L41.9417 50.1504L49.7709 45.6159C50.6406 45.112 52.0374 45.112 52.8848 45.6159L63.9424 52.0054C64.8354 52.5092 65.5226 53.723 65.5226 54.7077Z" fill="#F17736"/>
<path d="M51.3511 75.6854C51.3511 76.6014 50.7551 77.0136 49.9767 76.693C49.9544 76.6701 49.9311 76.6701 49.8854 76.6472C49.8631 76.6243 49.8165 76.6243 49.7942 76.6014L38.7366 70.2119C38.6221 70.1432 38.5298 70.0746 38.4153 69.9829C38.3241 69.8913 38.2095 69.7997 38.1183 69.7081C37.5689 69.1126 37.1564 68.2424 37.1564 67.5096V58.601C37.1564 58.5322 37.1564 58.4864 37.1564 58.4177V54.7077C37.1564 54.6619 37.1564 54.6161 37.1564 54.5474C37.1564 54.5245 37.1564 54.5016 37.1564 54.4786V54.4557C37.2709 53.6543 37.9125 53.3565 38.7133 53.8145L43.4753 56.5627L49.7942 60.204C50.6639 60.7079 51.3511 61.9216 51.3511 62.9064V75.6854Z" fill="#FFAA88"/>
<path d="M79.0747 71.6088L78.4797 71.9523L75.893 73.4409C75.1145 73.899 74.4506 74.9524 74.336 75.8914V75.983V76.1204V79.8304C74.3127 78.4105 73.5576 77.0135 72.2064 76.2349L64.9489 72.0439C63.5531 71.2424 61.9039 71.3111 60.6227 72.0898L52.907 76.5326C52.0374 77.0135 51.3501 76.6242 51.3501 75.6166V62.8376C51.3501 61.8528 52.0597 60.6391 52.907 60.1352L63.9646 53.7457C64.812 53.2419 65.5216 53.6541 65.5216 54.6389V63.5476C65.476 65.0362 66.2544 66.5247 67.6279 67.3262L74.8854 71.5172C76.2356 72.3416 77.8158 72.3187 79.0747 71.6088Z" fill="#C94314"/>
<path d="M91.2098 56.9062V65.2881C91.2098 66.8912 92.1028 68.2881 93.4074 68.9981L101.123 73.441C101.969 73.9448 102.68 75.1586 102.68 76.1433V88.9223C102.68 89.9071 101.969 91.1208 101.123 91.6247L90.0654 98.0141C89.287 98.4493 88.0737 98.4951 87.2263 98.1516C87.1807 98.1287 87.1574 98.1287 87.1117 98.1058C87.0661 98.0829 86.9972 98.06 86.9516 98.0141L75.894 91.6247C75.6872 91.5101 75.4815 91.327 75.299 91.1437C74.7486 90.5483 74.3371 89.678 74.3371 88.9223V80.0365C74.3371 79.9679 74.3371 79.9221 74.3371 79.8534V76.1433C74.3371 76.0975 74.3371 76.0518 74.3371 76.006C74.3371 75.9831 74.3371 75.9372 74.3371 75.9143C74.4283 74.9754 75.0922 73.899 75.894 73.4639L78.4808 71.9753L79.0758 71.6318L79.8319 71.1966L83.5864 69.021C83.6776 68.9752 83.7465 68.9295 83.8378 68.8836C85.0054 68.1279 85.7839 66.8224 85.7839 65.311V56.9291C85.7839 55.326 84.8909 53.9291 83.5864 53.2191L75.894 48.7762C75.0466 48.2723 74.3371 47.0586 74.3371 46.0739V33.2491C74.3371 32.2643 75.0466 31.0505 75.894 30.5467L86.9516 24.1572C87.8213 23.6534 89.2181 23.6534 90.0654 24.1572L101.123 30.5467C101.993 31.0505 102.68 32.2643 102.68 33.2491V46.0281C102.68 46.5318 102.497 47.0815 102.222 47.5624C101.947 48.0434 101.558 48.4785 101.123 48.7304L93.4074 53.1733C92.1028 53.9061 91.2098 55.3031 91.2098 56.9062Z" fill="#F17736"/>
<path d="M88.5085 41.4478C88.5085 40.4629 87.799 39.2492 86.9516 38.7454L75.894 32.3559C75.0466 31.8521 74.3371 32.2643 74.3371 33.249V46.028C74.3371 47.0128 75.0466 48.2266 75.894 48.7304L86.9516 55.1198C87.799 55.6237 88.5085 55.2115 88.5085 54.2267V41.4478Z" fill="#FFAA88"/>
<path d="M102.679 46.028C102.679 47.0128 101.969 48.2266 101.122 48.7304L90.0643 55.1198C89.218 55.6237 88.5074 55.2115 88.5074 54.2267V41.4478C88.5074 40.4629 89.218 39.2492 90.0643 38.7454L101.122 32.3559C101.969 31.8521 102.679 32.2643 102.679 33.249V46.028Z" fill="#C94314"/>
<path d="M88.5085 97.144C88.5085 98.0371 87.9591 98.4493 87.2263 98.1745C87.1807 98.1516 87.1574 98.1516 87.1117 98.1287C87.0661 98.1058 86.9972 98.0829 86.9516 98.0371L75.894 91.6476C75.6872 91.533 75.4815 91.3499 75.299 91.1667C74.7486 90.5712 74.3371 89.701 74.3371 88.9453V80.0595C74.3371 79.9908 74.3371 79.945 74.3371 79.8763V76.1663C74.3371 76.1205 74.3371 76.0747 74.3371 76.0289C74.3371 76.006 74.3371 75.9601 74.3371 75.9372C74.4516 75.1357 75.0922 74.838 75.894 75.296L80.6327 78.0442L86.9516 81.6855C87.8213 82.1894 88.5085 83.4031 88.5085 84.3878V97.144Z" fill="#FFAA88"/>
<path d="M102.679 88.9453C102.679 89.93 101.969 91.1438 101.122 91.6476L90.0643 98.0371C89.218 98.5409 88.5074 98.1287 88.5074 97.144V84.365C88.5074 83.3803 89.218 82.1665 90.0643 81.6626L101.122 75.2731C101.969 74.7694 102.679 75.1815 102.679 76.1663V88.9453Z" fill="#C94314"/>
<path d="M28.3652 46.0264V33.2474C28.3652 32.2626 27.6557 31.0488 26.8083 30.545L15.7507 24.1555C14.9043 23.6517 13.4842 23.6517 12.6378 24.1555L1.55693 30.545C0.709539 31.0488 0 32.2626 0 33.2474V46.0264C0 47.0111 0.709539 48.2249 1.55693 48.7287L9.27161 53.1716C10.5772 53.8815 11.4702 55.2785 11.4702 56.8816V65.2864C11.4702 66.8895 10.5772 68.2865 9.27161 68.9965L4.167 71.9507L1.57922 73.4393C0.732847 73.9431 0.023316 75.1569 0.023316 76.1417V88.9206C0.023316 89.9054 0.732847 91.1192 1.57922 91.623L12.6378 98.0124C13.4842 98.5163 14.9043 98.5163 15.7507 98.0124L26.8083 91.623C27.6557 91.1192 28.3652 89.9054 28.3652 88.9206V76.1417C28.3652 75.1569 27.6557 73.9431 26.8083 73.4393L19.0936 68.9965C17.7881 68.2865 16.8961 66.8895 16.8961 65.2864V56.8816C16.8961 55.2785 17.7881 53.8815 19.0936 53.1716L26.8083 48.7287C27.679 48.2249 28.3652 47.0111 28.3652 46.0264Z" fill="#F17736"/>
<path d="M14.1937 41.4478C14.1937 40.4629 13.4842 39.2492 12.6378 38.7454L1.55693 32.3559C0.709539 31.8521 0 32.2643 0 33.249V46.028C0 47.0128 0.709539 48.2266 1.55693 48.7304L12.6145 55.1198C13.4619 55.6237 14.1715 55.2115 14.1715 54.2267L14.1937 41.4478Z" fill="#FFAA88"/>
<path d="M41.9426 50.1503L38.7143 52.0053C37.9358 52.4634 37.2719 53.5168 37.1573 54.4558V54.4787V54.5474V54.7076V58.4177C37.134 56.9978 36.3789 55.6008 35.0277 54.8222L27.7712 50.6313C26.3744 49.8297 24.7263 49.8984 23.444 50.6771L15.7283 55.1199C14.882 55.6008 14.1714 55.2115 14.1714 54.2268V41.4477C14.1714 40.463 14.882 39.2493 15.7283 38.7454L26.786 32.3559C27.0383 32.2185 27.2674 32.1498 27.4732 32.1498C27.977 32.1498 28.3429 32.562 28.3429 33.249V42.1577C28.2973 43.6463 29.0757 45.1349 30.4492 45.9365L37.7067 50.1274C39.1035 50.906 40.6827 50.8602 41.9426 50.1503Z" fill="#C94314"/>
<path d="M14.1937 84.365C14.1937 83.3803 13.4842 82.1665 12.6378 81.6626L1.55693 75.2731C0.709539 74.7694 0 75.1815 0 76.1663V88.9453C0 89.93 0.709539 91.1438 1.55693 91.6476L12.6145 98.0371C13.4619 98.5409 14.1715 98.1287 14.1715 97.144L14.1937 84.365Z" fill="#FFAA88"/>
<path d="M28.3662 88.9453C28.3662 89.93 27.6567 91.1438 26.8093 91.6476L15.7517 98.0371C14.9043 98.5409 14.1947 98.1287 14.1947 97.144V84.365C14.1947 83.3803 14.9043 82.1665 15.7517 81.6626L26.8093 75.2731C27.6567 74.7694 28.3662 75.1815 28.3662 76.1663V88.9453Z" fill="#C94314"/>
<path d="M65.5226 54.7077V67.4867C65.5226 68.4715 64.8121 69.6852 63.9657 70.1891L52.9081 76.5785C52.1519 77.0137 50.9842 77.0595 50.1145 76.7388C50.0689 76.7159 50.0233 76.7159 49.9777 76.6931C49.9544 76.6702 49.9311 76.6702 49.8854 76.6473C49.8631 76.6244 49.8165 76.6244 49.7942 76.6014L38.7366 70.212C38.6221 70.1433 38.5298 70.0745 38.4153 69.9829C38.3241 69.8914 38.2095 69.7997 38.1183 69.7081C37.5689 69.1127 37.1564 68.2424 37.1564 67.5096V58.6009C37.1564 58.5322 37.1564 58.4865 37.1564 58.4178V54.7077C37.1564 54.6619 37.1564 54.6161 37.1564 54.5474C37.1564 54.5245 37.1564 54.5016 37.1564 54.4787V54.4558C37.2486 53.5169 37.9125 52.4633 38.7133 52.0054L41.9417 50.1504L49.7709 45.6159C50.6406 45.112 52.0374 45.112 52.8848 45.6159L63.9424 52.0054C64.8354 52.5092 65.5226 53.723 65.5226 54.7077Z" fill="#F17736"/>
<path d="M51.3512 75.6853C51.3512 76.6013 50.7552 77.0136 49.9767 76.693C49.9544 76.6701 49.9311 76.6701 49.8855 76.6472C49.8632 76.6243 49.8165 76.6243 49.7942 76.6013L38.7366 70.2119C38.6221 70.1431 38.5299 70.0745 38.4153 69.9829C38.3241 69.8913 38.2096 69.7996 38.1183 69.7081C37.569 69.1126 37.1564 68.2424 37.1564 67.5095V58.6009C37.1564 58.5322 37.1564 58.4864 37.1564 58.4177V54.7077C37.1564 54.6619 37.1564 54.6161 37.1564 54.5473C37.1564 54.5244 37.1564 54.5015 37.1564 54.4786V54.4557C37.2709 53.6542 37.9126 53.3564 38.7133 53.8145L43.4753 56.5626L49.7942 60.204C50.6639 60.7078 51.3512 61.9216 51.3512 62.9064V75.6853Z" fill="#FFAA88"/>
<path d="M65.5226 9.4697V22.2486C65.5226 23.2335 64.812 24.4472 63.9657 24.9511L52.9081 31.3405C52.1519 31.7757 50.9842 31.8215 50.1145 31.5008C50.0689 31.4779 50.0233 31.4779 49.9777 31.4551C49.9543 31.4322 49.931 31.4322 49.8854 31.4093C49.8631 31.3864 49.8165 31.3864 49.7942 31.3634L38.7366 24.974C38.6221 24.9052 38.5298 24.8365 38.4153 24.7449C38.324 24.6534 38.2095 24.5617 38.1183 24.4701C37.5689 23.8747 37.1564 23.0044 37.1564 22.2716V13.3629C37.1564 13.2942 37.1564 13.2485 37.1564 13.1798V9.4697C37.1564 9.42388 37.1564 9.37806 37.1564 9.30944C37.1564 9.28653 37.1564 9.26363 37.1564 9.24072V9.21781C37.2486 8.27889 37.9125 7.22533 38.7133 6.76738L41.9417 4.91235L49.7709 0.377904C50.6406 -0.125968 52.0373 -0.125968 52.8847 0.377904L63.9423 6.76738C64.8353 7.27115 65.5226 8.48496 65.5226 9.4697Z" fill="#F17736"/>
<path d="M50.8349 17.9023C50.8349 16.9624 50.1371 15.804 49.3036 15.3231L38.4277 9.22489C37.5942 8.74402 36.8963 9.13745 36.8963 10.0773V22.2738C36.8963 23.2137 37.5942 24.3721 38.4277 24.8529L49.3036 30.9512C50.1371 31.4321 50.8349 31.0386 50.8349 30.0988V17.9023Z" fill="#FFAA88"/>
<path d="M65.5935 22.1077C65.5935 23.1172 64.8546 24.3615 63.9721 24.8779L52.4564 31.4278C51.5749 31.9444 50.8349 31.5218 50.8349 30.5123V17.4124C50.8349 16.4029 51.5749 15.1587 52.4564 14.6421L63.9721 8.09221C64.8546 7.57572 65.5935 7.9983 65.5935 9.00774V22.1077Z" fill="#C94314"/>
<path d="M65.5226 96.3812V109.16C65.5226 110.145 64.8121 111.359 63.9657 111.863L52.9081 118.252C52.1519 118.687 50.9842 118.733 50.1145 118.412C50.0689 118.389 50.0233 118.389 49.9777 118.367C49.9544 118.344 49.9311 118.344 49.8854 118.321C49.8631 118.298 49.8165 118.298 49.7942 118.275L38.7366 111.885C38.6221 111.817 38.5298 111.748 38.4153 111.656C38.3241 111.565 38.2095 111.473 38.1183 111.382C37.5689 110.786 37.1564 109.916 37.1564 109.183V100.274C37.1564 100.206 37.1564 100.16 37.1564 100.091V96.3812C37.1564 96.3353 37.1564 96.2895 37.1564 96.2209C37.1564 96.198 37.1564 96.1751 37.1564 96.1522V96.1293C37.2486 95.1904 37.9125 94.1368 38.7133 93.6788L41.9417 91.8238L49.7709 87.2894C50.6406 86.7855 52.0374 86.7855 52.8848 87.2894L63.9424 93.6788C64.8354 94.1826 65.5226 95.3964 65.5226 96.3812Z" fill="#F17736"/>
<path d="M51.3512 117.359C51.3512 118.275 50.7552 118.687 49.9767 118.366C49.9544 118.344 49.9311 118.344 49.8855 118.321C49.8632 118.298 49.8165 118.298 49.7942 118.275L38.7366 111.885C38.6221 111.817 38.5299 111.748 38.4153 111.656C38.3241 111.565 38.2096 111.473 38.1183 111.382C37.569 110.786 37.1564 109.916 37.1564 109.183V100.274C37.1564 100.206 37.1564 100.16 37.1564 100.091V96.3812C37.1564 96.3354 37.1564 96.2896 37.1564 96.2209C37.1564 96.198 37.1564 96.175 37.1564 96.1521V96.1292C37.2709 95.3278 37.9126 95.03 38.7133 95.488L43.4753 98.2362L49.7942 101.877C50.6639 102.381 51.3512 103.595 51.3512 104.58V117.359Z" fill="#FFAA88"/>
<path d="M65.8264 108.998C65.8264 109.983 65.1168 111.197 64.2694 111.701L53.2119 118.09C52.3655 118.594 51.6549 118.182 51.6549 117.197V104.418C51.6549 103.433 52.3655 102.22 53.2119 101.716L64.2694 95.3263C65.1168 94.8225 65.8264 95.2347 65.8264 96.2194V108.998Z" fill="#C94314"/>
<path d="M79.0747 71.6088L78.4797 71.9523L75.893 73.4409C75.1145 73.899 74.4506 74.9524 74.336 75.8914V75.983V76.1204V79.8304C74.3127 78.4105 73.5576 77.0135 72.2064 76.2349L64.9489 72.0439C63.5531 71.2424 61.9039 71.3111 60.6227 72.0898L52.907 76.5326C52.0374 77.0135 51.3501 76.6242 51.3501 75.6166V62.8376C51.3501 61.8528 52.0597 60.6391 52.907 60.1352L63.9646 53.7457C64.812 53.2419 65.5216 53.6541 65.5216 54.6389V63.5476C65.476 65.0362 66.2544 66.5247 67.6279 67.3262L74.8854 71.5172C76.2356 72.3416 77.8158 72.3187 79.0747 71.6088Z" fill="#C94314"/>
<path d="M91.2098 56.9062V65.2881C91.2098 66.8912 92.1028 68.2881 93.4074 68.9981L101.123 73.441C101.969 73.9448 102.68 75.1586 102.68 76.1433V88.9223C102.68 89.9071 101.969 91.1208 101.123 91.6247L90.0654 98.0141C89.287 98.4493 88.0737 98.4951 87.2263 98.1516C87.1807 98.1287 87.1574 98.1287 87.1117 98.1058C87.0661 98.0829 86.9972 98.06 86.9516 98.0141L75.894 91.6247C75.6872 91.5101 75.4815 91.327 75.299 91.1437C74.7486 90.5483 74.3371 89.678 74.3371 88.9223V80.0365C74.3371 79.9679 74.3371 79.9221 74.3371 79.8534V76.1433C74.3371 76.0975 74.3371 76.0518 74.3371 76.006C74.3371 75.9831 74.3371 75.9372 74.3371 75.9143C74.4283 74.9754 75.0922 73.899 75.894 73.4639L78.4808 71.9753L79.0758 71.6318L79.8319 71.1966L83.5864 69.021C83.6776 68.9752 83.7465 68.9295 83.8378 68.8836C85.0054 68.1279 85.7839 66.8224 85.7839 65.311V56.9291C85.7839 55.326 84.8909 53.9291 83.5864 53.2191L75.894 48.7762C75.0466 48.2723 74.3371 47.0586 74.3371 46.0739V33.2491C74.3371 32.2643 75.0466 31.0505 75.894 30.5467L86.9516 24.1572C87.8213 23.6534 89.2181 23.6534 90.0654 24.1572L101.123 30.5467C101.993 31.0505 102.68 32.2643 102.68 33.2491V46.0281C102.68 46.5318 102.497 47.0815 102.222 47.5624C101.947 48.0434 101.558 48.4785 101.123 48.7304L93.4074 53.1733C92.1028 53.9061 91.2098 55.3031 91.2098 56.9062Z" fill="#F17736"/>
<path d="M88.5085 41.4478C88.5085 40.4629 87.799 39.2492 86.9516 38.7454L75.894 32.3559C75.0466 31.8521 74.3371 32.2643 74.3371 33.249V46.028C74.3371 47.0128 75.0466 48.2266 75.894 48.7304L86.9516 55.1198C87.799 55.6237 88.5085 55.2115 88.5085 54.2267V41.4478Z" fill="#FFAA88"/>
<path d="M102.679 46.028C102.679 47.0128 101.969 48.2266 101.122 48.7304L90.0643 55.1198C89.218 55.6237 88.5074 55.2115 88.5074 54.2267V41.4478C88.5074 40.4629 89.218 39.2492 90.0643 38.7454L101.122 32.3559C101.969 31.8521 102.679 32.2643 102.679 33.249V46.028Z" fill="#C94314"/>
<path d="M88.5085 97.144C88.5085 98.0371 87.9591 98.4493 87.2263 98.1745C87.1807 98.1516 87.1574 98.1516 87.1117 98.1287C87.0661 98.1058 86.9972 98.0829 86.9516 98.0371L75.894 91.6476C75.6872 91.533 75.4815 91.3499 75.299 91.1667C74.7486 90.5712 74.3371 89.701 74.3371 88.9453V80.0595C74.3371 79.9908 74.3371 79.945 74.3371 79.8763V76.1663C74.3371 76.1205 74.3371 76.0747 74.3371 76.0289C74.3371 76.006 74.3371 75.9601 74.3371 75.9372C74.4516 75.1357 75.0922 74.838 75.894 75.296L80.6327 78.0442L86.9516 81.6855C87.8213 82.1894 88.5085 83.4031 88.5085 84.3878V97.144Z" fill="#FFAA88"/>
<path d="M102.679 88.9453C102.679 89.93 101.969 91.1438 101.122 91.6476L90.0643 98.0371C89.218 98.5409 88.5074 98.1287 88.5074 97.144V84.365C88.5074 83.3803 89.218 82.1665 90.0643 81.6626L101.122 75.2731C101.969 74.7694 102.679 75.1815 102.679 76.1663V88.9453Z" fill="#C94314"/>
</svg>
