<svg width="538" height="58" viewBox="0 0 538 58" fill="none" xmlns="http://www.w3.org/2000/svg">
<path d="M45.5657 57.5186C43.554 57.7591 41.5022 57.2763 40.0135 55.5056L12.6553 23.4272V57.116H0.183105V7.36751C0.183105 3.94714 2.9994 1.12891 6.41919 1.12891C8.35037 1.12891 9.7585 1.61168 11.1667 3.30227C11.1667 3.30227 19.8168 13.5259 38.5249 35.2203V1.7328H50.9972V51.3602C50.9569 54.499 48.6234 57.075 45.5657 57.5186Z" fill="#F17736"/>
<path d="M74.293 57.0722C70.8731 57.0722 68.0569 54.2557 68.0569 50.8336V7.96858C68.0569 4.54822 70.8731 1.72998 74.293 1.72998H108.692V12.4364H80.529V23.5045H100.726C103.703 23.5045 106.117 25.9201 106.117 28.8987C106.117 31.8773 103.703 34.211 100.726 34.211H80.529V46.3657H108.692V57.0722H74.293Z" fill="#F17736"/>
<path d="M152.788 12.5984V57.0738H140.316V12.5984H122.211V1.69238H170.973V12.5984H152.788Z" fill="#F17736"/>
<path d="M203.923 58.0002C196.6 58.0002 188.714 56.5109 181.393 54.0151L183.644 44.3561C190.043 46.0859 197.686 47.4149 204.083 47.4149C211.164 47.4149 215.309 45.7652 215.309 42.3431C215.309 39.6068 209.676 37.6739 199.176 32.8854C189.519 28.4977 183.283 24.3915 183.283 16.343C183.283 5.19294 190.444 0.887207 206.135 0.887207C212.371 0.887207 221.907 2.29631 226.654 3.70365L224.844 13.767C218.366 12.5182 212.049 11.5937 206.295 11.5937C198.492 11.5937 195.675 12.6803 195.675 15.4166C195.675 18.4753 199.094 19.6422 209.958 24.714C220.779 29.7857 227.74 32.0392 227.74 41.3366C227.78 54.0151 215.711 58.0002 203.923 58.0002Z" fill="#F17736"/>
<path d="M280.325 57.0722L256.708 34.3731V57.0722H244.236V1.72998H256.708V23.264L279.238 1.72998H295.694L267.209 28.5763L296.779 57.0722H280.325Z" fill="#F17736"/>
<path d="M347.433 57.0722L336.127 37.1895H322.488V57.0722H310.017V7.96858C310.017 4.54822 312.833 1.72998 316.252 1.72998H341.197C351.737 1.72998 359.382 9.61998 359.382 19.5212C359.382 26.6042 355.237 32.5614 349.163 35.4188L361.716 57.1132H347.433V57.0722ZM338.621 11.7933H322.488V27.4896H338.621C342.926 27.4896 346.587 24.1494 346.587 19.5212C346.587 14.8913 342.967 11.7933 338.621 11.7933Z" fill="#F17736"/>
<path d="M414.703 57.075L410.399 45.7647H390.201L385.897 57.075H373.505L395.11 4.62943C396.035 2.37591 398.167 1.12891 400.34 1.12891C402.513 1.12891 404.565 2.37591 405.49 4.62943L427.095 57.075H414.703ZM400.34 18.758L393.863 36.3052H406.817L400.34 18.758Z" fill="#F17736"/>
<path d="M452.601 12.4364V23.5045H473.724C476.701 23.5045 479.116 25.9201 479.116 28.8987C479.116 31.8773 476.701 34.211 473.724 34.211H452.601V57.0722H440.129V7.96858C440.129 4.54822 442.947 1.72998 446.365 1.72998H482.333V12.4364H452.601Z" fill="#F17736"/>
<path d="M502.772 57.0722C499.352 57.0722 496.616 54.2557 496.616 50.8336V1.72998H509.008V46.3657H537.774V57.0722H502.772Z" fill="#F17736"/>
</svg>
