<svg width="1512" height="562" viewBox="0 0 1512 562" fill="none" xmlns="http://www.w3.org/2000/svg">
<path d="M495.5 101.008C281.759 102.264 0 271.085 0 271.085V455.061C0 455.061 357.266 356.171 595 360.33C823.634 364.331 934.37 483.651 1162 467.497C1305.02 457.348 1512 384.47 1512 384.47V140.144C1512 140.144 1162.58 240.398 934.5 220.977C752.715 205.497 678.507 99.9329 495.5 101.008Z" fill="#F17736"/>
<path d="M0 364.62V503C0 503 294.693 377.014 502.5 373.476C706.909 369.996 800.86 473.487 1005 481.966C1205.51 490.294 1512 418.496 1512 418.496V241C1512 241 1306.72 354.802 1151.5 373.476C933.068 399.755 826.193 268.193 605 262.772C362.798 256.836 0 364.62 0 364.62Z" fill="#FFAA88"/>
</svg>
