<svg width="182" height="210" viewBox="0 0 182 210" fill="none" xmlns="http://www.w3.org/2000/svg">
<path d="M50.0335 81.1768V58.6393C50.0335 56.9025 48.7821 54.7618 47.2876 53.8732L27.7859 42.6044C26.2932 41.7158 23.7887 41.7158 22.296 42.6044L2.75319 53.8732C1.2587 54.7618 0.00732422 56.9025 0.00732422 58.6393V81.1768C0.00732422 82.9136 1.2587 85.0543 2.75319 85.9428L16.3591 93.7785C18.6617 95.0306 20.2366 97.4944 20.2366 100.322V115.145C20.2366 117.972 18.6617 120.436 16.3591 121.688L7.35643 126.898L2.79251 129.524C1.29981 130.412 0.0484453 132.553 0.0484453 134.29V156.827C0.0484453 158.564 1.29981 160.705 2.79251 161.593L22.296 172.862C23.7887 173.751 26.2932 173.751 27.7859 172.862L47.2876 161.593C48.7821 160.705 50.0335 158.564 50.0335 156.827V134.29C50.0335 132.553 48.7821 130.412 47.2876 129.524L33.6817 121.688C31.3791 120.436 29.806 117.972 29.806 115.145V100.322C29.806 97.4944 31.3791 95.0306 33.6817 93.7785L47.2876 85.9428C48.8232 85.0543 50.0335 82.9136 50.0335 81.1768Z" fill="#F17736"/>
<path d="M25.0401 73.1002C25.0401 71.3633 23.7887 69.2227 22.296 68.3341L2.75319 57.0653C1.2587 56.1767 0.00732422 56.9037 0.00732422 58.6404V81.1782C0.00732422 82.9149 1.2587 85.0556 2.75319 85.9441L22.2549 97.2129C23.7494 98.1015 25.0007 97.3745 25.0007 95.6377L25.0401 73.1002Z" fill="#FFAA88"/>
<path d="M73.9793 88.4472L68.2856 91.7188C66.9126 92.5267 65.7417 94.3846 65.5397 96.0405V96.0809V96.2021V96.4848V103.028C65.4986 100.524 64.1668 98.0601 61.7838 96.6868L48.9859 89.2954C46.5225 87.8818 43.6157 88.003 41.3543 89.3762L27.7466 97.2118C26.2539 98.0601 25.0007 97.3734 25.0007 95.6367V73.0989C25.0007 71.3622 26.2539 69.2217 27.7466 68.333L47.2483 57.0642C47.6934 56.8219 48.0974 56.7007 48.4603 56.7007C49.3488 56.7007 49.9941 57.4277 49.9941 58.6393V74.351C49.9137 76.9764 51.2866 79.6018 53.7089 81.0155L66.5086 88.4068C68.972 89.7801 71.7572 89.6993 73.9793 88.4472Z" fill="#C94314"/>
<path d="M25.0401 148.791C25.0401 147.054 23.7887 144.913 22.296 144.024L2.75319 132.756C1.2587 131.867 0.00732422 132.594 0.00732422 134.331V156.869C0.00732422 158.605 1.2587 160.746 2.75319 161.634L22.2549 172.903C23.7494 173.792 25.0007 173.065 25.0007 171.328L25.0401 148.791Z" fill="#FFAA88"/>
<path d="M50.035 156.869C50.035 158.605 48.7837 160.746 47.2892 161.634L27.7875 172.903C26.293 173.792 25.0416 173.065 25.0416 171.328V148.791C25.0416 147.054 26.293 144.913 27.7875 144.024L47.2892 132.756C48.7837 131.867 50.035 132.594 50.035 134.331V156.869Z" fill="#C94314"/>
<path d="M115.566 96.4844V119.022C115.566 120.759 114.313 122.899 112.821 123.788L93.3189 135.057C91.9853 135.824 89.9258 135.905 88.392 135.34C88.3116 135.299 88.2311 135.299 88.1507 135.259C88.1096 135.218 88.0685 135.218 87.988 135.178C87.9487 135.138 87.8665 135.138 87.8271 135.097L68.3254 123.828C68.1234 123.707 67.9608 123.586 67.7587 123.424C67.5979 123.263 67.3959 123.101 67.235 122.94C66.266 121.89 65.5385 120.355 65.5385 119.062V103.351C65.5385 103.229 65.5385 103.149 65.5385 103.028V96.4844C65.5385 96.4036 65.5385 96.3228 65.5385 96.2018C65.5385 96.1614 65.5385 96.121 65.5385 96.0806V96.0402C65.7011 94.3843 66.872 92.5261 68.2843 91.7185L73.9781 88.4468L87.786 80.4497C89.3198 79.561 91.7832 79.561 93.2777 80.4497L112.779 91.7185C114.354 92.6069 115.566 94.7477 115.566 96.4844Z" fill="#F17736"/>
<path d="M90.573 133.482C90.573 135.097 89.5218 135.824 88.1489 135.259C88.1096 135.219 88.0684 135.219 87.988 135.178C87.9487 135.138 87.8664 135.138 87.8271 135.097L68.3254 123.829C68.1234 123.707 67.9608 123.586 67.7587 123.425C67.5979 123.263 67.3958 123.102 67.235 122.94C66.266 121.89 65.5385 120.355 65.5385 119.063V103.351C65.5385 103.23 65.5385 103.149 65.5385 103.028V96.4847C65.5385 96.4039 65.5385 96.3231 65.5385 96.2019C65.5385 96.1615 65.5385 96.1211 65.5385 96.0807V96.0403C65.7405 94.6268 66.872 94.1016 68.2843 94.9094L76.6828 99.7561L87.8271 106.178C89.3609 107.067 90.573 109.207 90.573 110.944V133.482Z" fill="#FFAA88"/>
<path d="M139.467 126.291L138.418 126.896L133.855 129.522C132.482 130.33 131.312 132.188 131.11 133.844V134.005V134.248V140.791C131.068 138.286 129.737 135.823 127.354 134.449L114.554 127.058C112.092 125.644 109.184 125.766 106.924 127.139L93.3164 134.974C91.7826 135.823 90.5706 135.136 90.5706 133.359V110.821C90.5706 109.084 91.8219 106.944 93.3164 106.055L112.818 94.7864C114.313 93.898 115.564 94.6248 115.564 96.3617V112.073C115.484 114.699 116.856 117.324 119.279 118.738L132.078 126.129C134.46 127.583 137.247 127.543 139.467 126.291Z" fill="#C94314"/>
<path d="M160.869 100.362V115.145C160.869 117.972 162.444 120.436 164.745 121.688L178.353 129.524C179.845 130.412 181.099 132.553 181.099 134.29V156.827C181.099 158.564 179.845 160.705 178.353 161.593L158.851 172.862C157.478 173.629 155.338 173.71 153.844 173.104C153.763 173.064 153.722 173.064 153.642 173.024C153.561 172.983 153.44 172.943 153.359 172.862L133.858 161.593C133.493 161.391 133.13 161.068 132.808 160.745C131.837 159.695 131.112 158.16 131.112 156.827V141.156C131.112 141.035 131.112 140.954 131.112 140.833V134.29C131.112 134.209 131.112 134.128 131.112 134.047C131.112 134.007 131.112 133.926 131.112 133.886C131.273 132.23 132.444 130.331 133.858 129.564L138.42 126.939L139.469 126.333L140.803 125.565L147.424 121.728C147.585 121.647 147.707 121.567 147.868 121.486C149.927 120.153 151.3 117.851 151.3 115.185V100.402C151.3 97.5752 149.725 95.1114 147.424 93.8593L133.858 86.0236C132.363 85.135 131.112 82.9944 131.112 81.2577V58.6393C131.112 56.9025 132.363 54.7618 133.858 53.8732L153.359 42.6044C154.893 41.7158 157.356 41.7158 158.851 42.6044L178.353 53.8732C179.886 54.7618 181.099 56.9025 181.099 58.6393V81.1769C181.099 82.0653 180.775 83.0348 180.291 83.8829C179.806 84.7311 179.12 85.4986 178.353 85.9428L164.745 93.7785C162.444 95.071 160.869 97.5348 160.869 100.362Z" fill="#F17736"/>
<path d="M156.105 73.1002C156.105 71.3633 154.854 69.2227 153.359 68.3341L133.858 57.0653C132.363 56.1767 131.112 56.9037 131.112 58.6404V81.1782C131.112 82.9149 132.363 85.0556 133.858 85.9441L153.359 97.2129C154.854 98.1015 156.105 97.3745 156.105 95.6377V73.1002Z" fill="#FFAA88"/>
<path d="M181.096 81.1782C181.096 82.9149 179.845 85.0556 178.35 85.9441L158.849 97.2129C157.356 98.1015 156.103 97.3745 156.103 95.6377V73.1002C156.103 71.3633 157.356 69.2227 158.849 68.3341L178.35 57.0653C179.845 56.1767 181.096 56.9037 181.096 58.6404V81.1782Z" fill="#C94314"/>
<path d="M156.105 171.328C156.105 172.903 155.136 173.63 153.844 173.145C153.763 173.105 153.722 173.105 153.642 173.064C153.561 173.024 153.44 172.984 153.359 172.903L133.857 161.634C133.493 161.432 133.13 161.109 132.808 160.786C131.837 159.736 131.112 158.201 131.112 156.868V141.197C131.112 141.076 131.112 140.995 131.112 140.874V134.331C131.112 134.25 131.112 134.169 131.112 134.088C131.112 134.048 131.112 133.967 131.112 133.927C131.314 132.513 132.443 131.988 133.857 132.796L142.215 137.642L153.359 144.064C154.893 144.953 156.105 147.094 156.105 148.83V171.328Z" fill="#FFAA88"/>
<path d="M181.096 156.869C181.096 158.605 179.845 160.746 178.35 161.634L158.849 172.903C157.356 173.792 156.103 173.065 156.103 171.328V148.791C156.103 147.054 157.356 144.913 158.849 144.024L178.35 132.756C179.845 131.867 181.096 132.594 181.096 134.331V156.869Z" fill="#C94314"/>
<path d="M50.0335 81.1768V58.6393C50.0335 56.9025 48.7821 54.7618 47.2876 53.8732L27.7859 42.6044C26.2932 41.7158 23.7887 41.7158 22.296 42.6044L2.75319 53.8732C1.2587 54.7618 0.00732422 56.9025 0.00732422 58.6393V81.1768C0.00732422 82.9136 1.2587 85.0543 2.75319 85.9428L16.3591 93.7785C18.6617 95.0306 20.2366 97.4944 20.2366 100.322V115.145C20.2366 117.972 18.6617 120.436 16.3591 121.688L7.35643 126.898L2.79251 129.524C1.29981 130.412 0.0484453 132.553 0.0484453 134.29V156.827C0.0484453 158.564 1.29981 160.705 2.79251 161.593L22.296 172.862C23.7887 173.751 26.2932 173.751 27.7859 172.862L47.2876 161.593C48.7821 160.705 50.0335 158.564 50.0335 156.827V134.29C50.0335 132.553 48.7821 130.412 47.2876 129.524L33.6817 121.688C31.3791 120.436 29.806 117.972 29.806 115.145V100.322C29.806 97.4944 31.3791 95.0306 33.6817 93.7785L47.2876 85.9428C48.8232 85.0543 50.0335 82.9136 50.0335 81.1768Z" fill="#F17736"/>
<path d="M25.0401 73.1002C25.0401 71.3633 23.7887 69.2227 22.296 68.3341L2.75319 57.0653C1.2587 56.1767 0.00732422 56.9037 0.00732422 58.6404V81.1782C0.00732422 82.9149 1.2587 85.0556 2.75319 85.9441L22.2549 97.2129C23.7494 98.1015 25.0007 97.3745 25.0007 95.6377L25.0401 73.1002Z" fill="#FFAA88"/>
<path d="M73.9793 88.4472L68.2856 91.7188C66.9126 92.5267 65.7417 94.3846 65.5397 96.0405V96.0809V96.2021V96.4848V103.028C65.4986 100.524 64.1668 98.0601 61.7838 96.6868L48.9859 89.2954C46.5225 87.8818 43.6157 88.003 41.3543 89.3762L27.7466 97.2118C26.2539 98.0601 25.0007 97.3734 25.0007 95.6367V73.0989C25.0007 71.3622 26.2539 69.2217 27.7466 68.333L47.2483 57.0642C47.6934 56.8219 48.0974 56.7007 48.4603 56.7007C49.3488 56.7007 49.9941 57.4277 49.9941 58.6393V74.351C49.9137 76.9764 51.2866 79.6018 53.7089 81.0155L66.5086 88.4068C68.972 89.7801 71.7572 89.6993 73.9793 88.4472Z" fill="#C94314"/>
<path d="M25.0401 148.791C25.0401 147.054 23.7887 144.913 22.296 144.024L2.75319 132.756C1.2587 131.867 0.00732422 132.594 0.00732422 134.331V156.869C0.00732422 158.605 1.2587 160.746 2.75319 161.634L22.2549 172.903C23.7494 173.792 25.0007 173.065 25.0007 171.328L25.0401 148.791Z" fill="#FFAA88"/>
<path d="M50.035 156.869C50.035 158.605 48.7837 160.746 47.2892 161.634L27.7875 172.903C26.293 173.792 25.0416 173.065 25.0416 171.328V148.791C25.0416 147.054 26.293 144.913 27.7875 144.024L47.2892 132.756C48.7837 131.867 50.035 132.594 50.035 134.331V156.869Z" fill="#C94314"/>
<path d="M115.566 96.4844V119.022C115.566 120.759 114.313 122.899 112.821 123.788L93.3189 135.057C91.9853 135.824 89.9258 135.905 88.392 135.34C88.3116 135.299 88.2311 135.299 88.1507 135.259C88.1096 135.218 88.0685 135.218 87.988 135.178C87.9487 135.138 87.8665 135.138 87.8271 135.097L68.3254 123.828C68.1234 123.707 67.9608 123.586 67.7587 123.424C67.5979 123.263 67.3959 123.101 67.235 122.94C66.266 121.89 65.5385 120.355 65.5385 119.062V103.351C65.5385 103.229 65.5385 103.149 65.5385 103.028V96.4844C65.5385 96.4036 65.5385 96.3228 65.5385 96.2018C65.5385 96.1614 65.5385 96.121 65.5385 96.0806V96.0402C65.7011 94.3843 66.872 92.5261 68.2843 91.7185L73.9781 88.4468L87.786 80.4497C89.3198 79.561 91.7832 79.561 93.2777 80.4497L112.779 91.7185C114.354 92.6069 115.566 94.7477 115.566 96.4844Z" fill="#F17736"/>
<path d="M90.573 133.482C90.573 135.097 89.5218 135.824 88.1489 135.259C88.1096 135.219 88.0684 135.219 87.988 135.178C87.9487 135.138 87.8664 135.138 87.8271 135.097L68.3254 123.829C68.1234 123.707 67.9608 123.586 67.7587 123.425C67.5979 123.263 67.3958 123.102 67.235 122.94C66.266 121.89 65.5385 120.355 65.5385 119.063V103.351C65.5385 103.23 65.5385 103.149 65.5385 103.028V96.4847C65.5385 96.4039 65.5385 96.3231 65.5385 96.2019C65.5385 96.1615 65.5385 96.1211 65.5385 96.0807V96.0403C65.7405 94.6268 66.872 94.1016 68.2843 94.9094L76.6828 99.7561L87.8271 106.178C89.3609 107.067 90.573 109.207 90.573 110.944V133.482Z" fill="#FFAA88"/>
<path d="M115.566 16.7012V39.2388C115.566 40.9757 114.313 43.1162 112.821 44.0049L93.3189 55.2737C91.9853 56.0411 89.9258 56.1219 88.392 55.5563C88.3116 55.5159 88.2311 55.5159 88.1507 55.4757C88.1096 55.4353 88.0685 55.4353 87.988 55.3949C87.9487 55.3545 87.8665 55.3545 87.8271 55.3141L68.3254 44.0453C68.1234 43.9241 67.9608 43.8029 67.7587 43.6413C67.5979 43.4798 67.3959 43.3182 67.235 43.1566C66.266 42.1066 65.5385 40.5717 65.5385 39.2792V23.5675C65.5385 23.4463 65.5385 23.3657 65.5385 23.2444V16.7012C65.5385 16.6204 65.5385 16.5396 65.5385 16.4186C65.5385 16.3782 65.5385 16.3378 65.5385 16.2974V16.257C65.7011 14.601 66.872 12.7429 68.2843 11.9353L73.9781 8.66365L87.786 0.666489C89.3198 -0.222163 91.7832 -0.222163 93.2777 0.666489L112.779 11.9353C114.354 12.8237 115.566 14.9645 115.566 16.7012Z" fill="#F17736"/>
<path d="M89.6624 31.5736C89.6624 29.9159 88.4316 27.8729 86.9616 27.0247L67.7803 16.2696C66.3104 15.4216 65.0796 16.1154 65.0796 17.773V39.2833C65.0796 40.9409 66.3104 42.9841 67.7803 43.832L86.9616 54.5871C88.4316 55.4353 89.6624 54.7414 89.6624 53.0838V31.5736Z" fill="#FFAA88"/>
<path d="M115.691 38.9886C115.691 40.7689 114.388 42.9634 112.831 43.8742L92.5219 55.426C90.9673 56.3369 89.6622 55.5916 89.6622 53.8113V30.7077C89.6622 28.9272 90.9673 26.7329 92.5219 25.8219L112.831 14.2702C114.388 13.3593 115.691 14.1045 115.691 15.8848V38.9886Z" fill="#C94314"/>
<path d="M115.566 169.984V192.521C115.566 194.258 114.313 196.399 112.821 197.288L93.3189 208.556C91.9853 209.324 89.9258 209.405 88.392 208.839C88.3116 208.799 88.2311 208.799 88.1507 208.758C88.1096 208.718 88.0685 208.718 87.988 208.678C87.9487 208.637 87.8665 208.637 87.8271 208.597L68.3254 197.328C68.1234 197.207 67.9608 197.086 67.7587 196.924C67.5979 196.763 67.3959 196.601 67.235 196.439C66.266 195.389 65.5385 193.854 65.5385 192.562V176.85C65.5385 176.729 65.5385 176.648 65.5385 176.527V169.984C65.5385 169.903 65.5385 169.822 65.5385 169.701C65.5385 169.661 65.5385 169.62 65.5385 169.58V169.54C65.7011 167.884 66.872 166.026 68.2843 165.218L73.9781 161.946L87.786 153.949C89.3198 153.061 91.7832 153.061 93.2777 153.949L112.779 165.218C114.354 166.106 115.566 168.247 115.566 169.984Z" fill="#F17736"/>
<path d="M90.573 206.981C90.573 208.596 89.5218 209.323 88.1489 208.758C88.1096 208.718 88.0684 208.718 87.988 208.677C87.9487 208.637 87.8664 208.637 87.8271 208.596L68.3254 197.328C68.1234 197.206 67.9608 197.085 67.7587 196.924C67.5979 196.762 67.3958 196.601 67.235 196.439C66.266 195.389 65.5385 193.854 65.5385 192.562V176.85C65.5385 176.729 65.5385 176.648 65.5385 176.527V169.984C65.5385 169.903 65.5385 169.822 65.5385 169.701C65.5385 169.661 65.5385 169.62 65.5385 169.58V169.539C65.7405 168.126 66.872 167.601 68.2843 168.408L76.6828 173.255L87.8271 179.677C89.3609 180.566 90.573 182.706 90.573 184.443V206.981Z" fill="#FFAA88"/>
<path d="M116.102 192.239C116.102 193.975 114.851 196.116 113.356 197.005L93.8544 208.273C92.3617 209.162 91.1085 208.435 91.1085 206.698V184.161C91.1085 182.424 92.3617 180.283 93.8544 179.395L113.356 168.126C114.851 167.237 116.102 167.964 116.102 169.701V192.239Z" fill="#C94314"/>
<path d="M139.467 126.291L138.418 126.896L133.855 129.522C132.482 130.33 131.312 132.188 131.11 133.844V134.005V134.248V140.791C131.068 138.286 129.737 135.823 127.354 134.449L114.554 127.058C112.092 125.644 109.184 125.766 106.924 127.139L93.3164 134.974C91.7826 135.823 90.5706 135.136 90.5706 133.359V110.821C90.5706 109.084 91.8219 106.944 93.3164 106.055L112.818 94.7864C114.313 93.898 115.564 94.6248 115.564 96.3617V112.073C115.484 114.699 116.856 117.324 119.279 118.738L132.078 126.129C134.46 127.583 137.247 127.543 139.467 126.291Z" fill="#C94314"/>
<path d="M160.869 100.362V115.145C160.869 117.972 162.444 120.436 164.745 121.688L178.353 129.524C179.845 130.412 181.099 132.553 181.099 134.29V156.827C181.099 158.564 179.845 160.705 178.353 161.593L158.851 172.862C157.478 173.629 155.338 173.71 153.844 173.104C153.763 173.064 153.722 173.064 153.642 173.024C153.561 172.983 153.44 172.943 153.359 172.862L133.858 161.593C133.493 161.391 133.13 161.068 132.808 160.745C131.837 159.695 131.112 158.16 131.112 156.827V141.156C131.112 141.035 131.112 140.954 131.112 140.833V134.29C131.112 134.209 131.112 134.128 131.112 134.047C131.112 134.007 131.112 133.926 131.112 133.886C131.273 132.23 132.444 130.331 133.858 129.564L138.42 126.939L139.469 126.333L140.803 125.565L147.424 121.728C147.585 121.647 147.707 121.567 147.868 121.486C149.927 120.153 151.3 117.851 151.3 115.185V100.402C151.3 97.5752 149.725 95.1114 147.424 93.8593L133.858 86.0236C132.363 85.135 131.112 82.9944 131.112 81.2577V58.6393C131.112 56.9025 132.363 54.7618 133.858 53.8732L153.359 42.6044C154.893 41.7158 157.356 41.7158 158.851 42.6044L178.353 53.8732C179.886 54.7618 181.099 56.9025 181.099 58.6393V81.1769C181.099 82.0653 180.775 83.0348 180.291 83.8829C179.806 84.7311 179.12 85.4986 178.353 85.9428L164.745 93.7785C162.444 95.071 160.869 97.5348 160.869 100.362Z" fill="#F17736"/>
<path d="M156.105 73.1002C156.105 71.3633 154.854 69.2227 153.359 68.3341L133.858 57.0653C132.363 56.1767 131.112 56.9037 131.112 58.6404V81.1782C131.112 82.9149 132.363 85.0556 133.858 85.9441L153.359 97.2129C154.854 98.1015 156.105 97.3745 156.105 95.6377V73.1002Z" fill="#FFAA88"/>
<path d="M181.096 81.1782C181.096 82.9149 179.845 85.0556 178.35 85.9441L158.849 97.2129C157.356 98.1015 156.103 97.3745 156.103 95.6377V73.1002C156.103 71.3633 157.356 69.2227 158.849 68.3341L178.35 57.0653C179.845 56.1767 181.096 56.9037 181.096 58.6404V81.1782Z" fill="#C94314"/>
<path d="M156.105 171.328C156.105 172.903 155.136 173.63 153.844 173.145C153.763 173.105 153.722 173.105 153.642 173.064C153.561 173.024 153.44 172.984 153.359 172.903L133.857 161.634C133.493 161.432 133.13 161.109 132.808 160.786C131.837 159.736 131.112 158.201 131.112 156.868V141.197C131.112 141.076 131.112 140.995 131.112 140.874V134.331C131.112 134.25 131.112 134.169 131.112 134.088C131.112 134.048 131.112 133.967 131.112 133.927C131.314 132.513 132.443 131.988 133.857 132.796L142.215 137.642L153.359 144.064C154.893 144.953 156.105 147.094 156.105 148.83V171.328Z" fill="#FFAA88"/>
<path d="M181.096 156.869C181.096 158.605 179.845 160.746 178.35 161.634L158.849 172.903C157.356 173.792 156.103 173.065 156.103 171.328V148.791C156.103 147.054 157.356 144.913 158.849 144.024L178.35 132.756C179.845 131.867 181.096 132.594 181.096 134.331V156.869Z" fill="#C94314"/>
</svg>
