<svg width="538" height="350" viewBox="0 0 538 350" fill="none" xmlns="http://www.w3.org/2000/svg">
<path d="M45.5657 349.519C43.554 349.759 41.5022 349.276 40.0135 347.506L12.6553 315.427V349.116H0.183105V299.368C0.183105 295.947 2.9994 293.129 6.41919 293.129C8.35037 293.129 9.7585 293.612 11.1667 295.302C11.1667 295.302 19.8168 305.526 38.5249 327.22V293.733H50.9972V343.36C50.9569 346.499 48.6234 349.075 45.5657 349.519Z" fill="#F17736"/>
<path d="M74.293 349.072C70.8731 349.072 68.0569 346.256 68.0569 342.834V299.969C68.0569 296.548 70.8731 293.73 74.293 293.73H108.692V304.436H80.529V315.505H100.726C103.703 315.505 106.117 317.92 106.117 320.899C106.117 323.877 103.703 326.211 100.726 326.211H80.529V338.366H108.692V349.072H74.293Z" fill="#F17736"/>
<path d="M152.788 304.598V349.074H140.316V304.598H122.211V293.692H170.973V304.598H152.788Z" fill="#F17736"/>
<path d="M203.923 350C196.6 350 188.714 348.511 181.393 346.015L183.644 336.356C190.043 338.086 197.686 339.415 204.083 339.415C211.164 339.415 215.309 337.765 215.309 334.343C215.309 331.607 209.676 329.674 199.176 324.885C189.519 320.498 183.283 316.392 183.283 308.343C183.283 297.193 190.444 292.887 206.135 292.887C212.371 292.887 221.907 294.296 226.654 295.704L224.844 305.767C218.366 304.518 212.049 303.594 206.295 303.594C198.492 303.594 195.675 304.68 195.675 307.417C195.675 310.475 199.094 311.642 209.958 316.714C220.779 321.786 227.74 324.039 227.74 333.337C227.78 346.015 215.711 350 203.923 350Z" fill="#F17736"/>
<path d="M280.325 349.072L256.708 326.373V349.072H244.236V293.73H256.708V315.264L279.238 293.73H295.694L267.209 320.576L296.779 349.072H280.325Z" fill="#F17736"/>
<path d="M347.433 349.072L336.127 329.19H322.488V349.072H310.017V299.969C310.017 296.548 312.833 293.73 316.252 293.73H341.197C351.737 293.73 359.382 301.62 359.382 311.521C359.382 318.604 355.237 324.561 349.163 327.419L361.716 349.113H347.433V349.072ZM338.621 303.793H322.488V319.49H338.621C342.926 319.49 346.587 316.149 346.587 311.521C346.587 306.891 342.967 303.793 338.621 303.793Z" fill="#F17736"/>
<path d="M414.703 349.075L410.399 337.765H390.201L385.897 349.075H373.505L395.11 296.629C396.035 294.376 398.167 293.129 400.34 293.129C402.513 293.129 404.565 294.376 405.49 296.629L427.095 349.075H414.703ZM400.34 310.758L393.863 328.305H406.817L400.34 310.758Z" fill="#F17736"/>
<path d="M452.601 304.436V315.505H473.724C476.701 315.505 479.116 317.92 479.116 320.899C479.116 323.877 476.701 326.211 473.724 326.211H452.601V349.072H440.129V299.969C440.129 296.548 442.947 293.73 446.365 293.73H482.333V304.436H452.601Z" fill="#F17736"/>
<path d="M502.772 349.072C499.352 349.072 496.616 346.256 496.616 342.834V293.73H509.008V338.366H537.774V349.072H502.772Z" fill="#F17736"/>
<path d="M228.033 81.1768V58.6393C228.033 56.9025 226.782 54.7618 225.288 53.8732L205.786 42.6044C204.293 41.7158 201.789 41.7158 200.296 42.6044L180.753 53.8732C179.259 54.7618 178.007 56.9025 178.007 58.6393V81.1768C178.007 82.9136 179.259 85.0543 180.753 85.9428L194.359 93.7785C196.662 95.0306 198.237 97.4944 198.237 100.322V115.145C198.237 117.972 196.662 120.436 194.359 121.688L185.356 126.898L180.793 129.524C179.3 130.412 178.048 132.553 178.048 134.29V156.827C178.048 158.564 179.3 160.705 180.793 161.593L200.296 172.862C201.789 173.751 204.293 173.751 205.786 172.862L225.288 161.593C226.782 160.705 228.033 158.564 228.033 156.827V134.29C228.033 132.553 226.782 130.412 225.288 129.524L211.682 121.688C209.379 120.436 207.806 117.972 207.806 115.145V100.322C207.806 97.4944 209.379 95.0306 211.682 93.7785L225.288 85.9428C226.823 85.0543 228.033 82.9136 228.033 81.1768Z" fill="#F17736"/>
<path d="M203.04 73.1002C203.04 71.3633 201.789 69.2227 200.296 68.3341L180.753 57.0653C179.259 56.1767 178.007 56.9037 178.007 58.6404V81.1782C178.007 82.9149 179.259 85.0556 180.753 85.9441L200.255 97.2129C201.749 98.1015 203.001 97.3745 203.001 95.6377L203.04 73.1002Z" fill="#FFAA88"/>
<path d="M251.979 88.4472L246.286 91.7188C244.913 92.5267 243.742 94.3846 243.54 96.0405V96.0809V96.2021V96.4848V103.028C243.499 100.524 242.167 98.0601 239.784 96.6868L226.986 89.2954C224.522 87.8818 221.616 88.003 219.354 89.3762L205.747 97.2118C204.254 98.0601 203.001 97.3734 203.001 95.6367V73.0989C203.001 71.3622 204.254 69.2217 205.747 68.333L225.248 57.0642C225.693 56.8219 226.097 56.7007 226.46 56.7007C227.349 56.7007 227.994 57.4277 227.994 58.6393V74.351C227.914 76.9764 229.287 79.6018 231.709 81.0155L244.509 88.4068C246.972 89.7801 249.757 89.6993 251.979 88.4472Z" fill="#C94314"/>
<path d="M203.04 148.791C203.04 147.054 201.789 144.913 200.296 144.024L180.753 132.756C179.259 131.867 178.007 132.594 178.007 134.331V156.869C178.007 158.605 179.259 160.746 180.753 161.634L200.255 172.903C201.749 173.792 203.001 173.065 203.001 171.328L203.04 148.791Z" fill="#FFAA88"/>
<path d="M228.035 156.869C228.035 158.605 226.784 160.746 225.289 161.634L205.787 172.903C204.293 173.792 203.042 173.065 203.042 171.328V148.791C203.042 147.054 204.293 144.913 205.787 144.024L225.289 132.756C226.784 131.867 228.035 132.594 228.035 134.331V156.869Z" fill="#C94314"/>
<path d="M293.566 96.4844V119.022C293.566 120.759 292.313 122.899 290.821 123.788L271.319 135.057C269.985 135.824 267.926 135.905 266.392 135.34C266.312 135.299 266.231 135.299 266.151 135.259C266.11 135.218 266.068 135.218 265.988 135.178C265.949 135.138 265.866 135.138 265.827 135.097L246.325 123.828C246.123 123.707 245.961 123.586 245.759 123.424C245.598 123.263 245.396 123.101 245.235 122.94C244.266 121.89 243.538 120.355 243.538 119.062V103.351C243.538 103.229 243.538 103.149 243.538 103.028V96.4844C243.538 96.4036 243.538 96.3228 243.538 96.2018C243.538 96.1614 243.538 96.121 243.538 96.0806V96.0402C243.701 94.3843 244.872 92.5261 246.284 91.7185L251.978 88.4468L265.786 80.4497C267.32 79.561 269.783 79.561 271.278 80.4497L290.779 91.7185C292.354 92.6069 293.566 94.7477 293.566 96.4844Z" fill="#F17736"/>
<path d="M268.573 133.482C268.573 135.097 267.522 135.824 266.149 135.259C266.11 135.219 266.068 135.219 265.988 135.178C265.949 135.138 265.866 135.138 265.827 135.097L246.325 123.829C246.123 123.707 245.961 123.586 245.759 123.425C245.598 123.263 245.396 123.102 245.235 122.94C244.266 121.89 243.538 120.355 243.538 119.063V103.351C243.538 103.23 243.538 103.149 243.538 103.028V96.4847C243.538 96.4039 243.538 96.3231 243.538 96.2019C243.538 96.1615 243.538 96.1211 243.538 96.0807V96.0403C243.74 94.6268 244.872 94.1016 246.284 94.9094L254.683 99.7561L265.827 106.178C267.361 107.067 268.573 109.207 268.573 110.944V133.482Z" fill="#FFAA88"/>
<path d="M317.467 126.291L316.418 126.896L311.855 129.522C310.482 130.33 309.312 132.188 309.11 133.844V134.005V134.248V140.791C309.068 138.286 307.737 135.823 305.354 134.449L292.554 127.058C290.092 125.644 287.184 125.766 284.924 127.139L271.316 134.974C269.783 135.823 268.571 135.136 268.571 133.359V110.821C268.571 109.084 269.822 106.944 271.316 106.055L290.818 94.7864C292.313 93.898 293.564 94.6248 293.564 96.3617V112.073C293.484 114.699 294.856 117.324 297.279 118.738L310.078 126.129C312.46 127.583 315.247 127.543 317.467 126.291Z" fill="#C94314"/>
<path d="M338.869 100.362V115.145C338.869 117.972 340.444 120.436 342.745 121.688L356.353 129.524C357.845 130.412 359.099 132.553 359.099 134.29V156.827C359.099 158.564 357.845 160.705 356.353 161.593L336.851 172.862C335.478 173.629 333.338 173.71 331.844 173.104C331.763 173.064 331.722 173.064 331.642 173.024C331.561 172.983 331.44 172.943 331.359 172.862L311.858 161.593C311.493 161.391 311.13 161.068 310.808 160.745C309.837 159.695 309.112 158.16 309.112 156.827V141.156C309.112 141.035 309.112 140.954 309.112 140.833V134.29C309.112 134.209 309.112 134.128 309.112 134.047C309.112 134.007 309.112 133.926 309.112 133.886C309.273 132.23 310.444 130.331 311.858 129.564L316.42 126.939L317.469 126.333L318.803 125.565L325.424 121.728C325.585 121.647 325.707 121.567 325.868 121.486C327.927 120.153 329.3 117.851 329.3 115.185V100.402C329.3 97.5752 327.725 95.1114 325.424 93.8593L311.858 86.0236C310.363 85.135 309.112 82.9944 309.112 81.2577V58.6393C309.112 56.9025 310.363 54.7618 311.858 53.8732L331.359 42.6044C332.893 41.7158 335.356 41.7158 336.851 42.6044L356.353 53.8732C357.886 54.7618 359.099 56.9025 359.099 58.6393V81.1769C359.099 82.0653 358.775 83.0348 358.291 83.8829C357.806 84.7311 357.12 85.4986 356.353 85.9428L342.745 93.7785C340.444 95.071 338.869 97.5348 338.869 100.362Z" fill="#F17736"/>
<path d="M334.105 73.1002C334.105 71.3633 332.854 69.2227 331.359 68.3341L311.858 57.0653C310.363 56.1767 309.112 56.9037 309.112 58.6404V81.1782C309.112 82.9149 310.363 85.0556 311.858 85.9441L331.359 97.2129C332.854 98.1015 334.105 97.3745 334.105 95.6377V73.1002Z" fill="#FFAA88"/>
<path d="M359.096 81.1782C359.096 82.9149 357.845 85.0556 356.35 85.9441L336.849 97.2129C335.356 98.1015 334.103 97.3745 334.103 95.6377V73.1002C334.103 71.3633 335.356 69.2227 336.849 68.3341L356.35 57.0653C357.845 56.1767 359.096 56.9037 359.096 58.6404V81.1782Z" fill="#C94314"/>
<path d="M334.105 171.328C334.105 172.903 333.136 173.63 331.844 173.145C331.763 173.105 331.722 173.105 331.642 173.064C331.561 173.024 331.44 172.984 331.359 172.903L311.857 161.634C311.493 161.432 311.13 161.109 310.808 160.786C309.837 159.736 309.112 158.201 309.112 156.868V141.197C309.112 141.076 309.112 140.995 309.112 140.874V134.331C309.112 134.25 309.112 134.169 309.112 134.088C309.112 134.048 309.112 133.967 309.112 133.927C309.314 132.513 310.443 131.988 311.857 132.796L320.215 137.642L331.359 144.064C332.893 144.953 334.105 147.094 334.105 148.83V171.328Z" fill="#FFAA88"/>
<path d="M359.096 156.869C359.096 158.605 357.845 160.746 356.35 161.634L336.849 172.903C335.356 173.792 334.103 173.065 334.103 171.328V148.791C334.103 147.054 335.356 144.913 336.849 144.024L356.35 132.756C357.845 131.867 359.096 132.594 359.096 134.331V156.869Z" fill="#C94314"/>
<path d="M228.033 81.1768V58.6393C228.033 56.9025 226.782 54.7618 225.288 53.8732L205.786 42.6044C204.293 41.7158 201.789 41.7158 200.296 42.6044L180.753 53.8732C179.259 54.7618 178.007 56.9025 178.007 58.6393V81.1768C178.007 82.9136 179.259 85.0543 180.753 85.9428L194.359 93.7785C196.662 95.0306 198.237 97.4944 198.237 100.322V115.145C198.237 117.972 196.662 120.436 194.359 121.688L185.356 126.898L180.793 129.524C179.3 130.412 178.048 132.553 178.048 134.29V156.827C178.048 158.564 179.3 160.705 180.793 161.593L200.296 172.862C201.789 173.751 204.293 173.751 205.786 172.862L225.288 161.593C226.782 160.705 228.033 158.564 228.033 156.827V134.29C228.033 132.553 226.782 130.412 225.288 129.524L211.682 121.688C209.379 120.436 207.806 117.972 207.806 115.145V100.322C207.806 97.4944 209.379 95.0306 211.682 93.7785L225.288 85.9428C226.823 85.0543 228.033 82.9136 228.033 81.1768Z" fill="#F17736"/>
<path d="M203.04 73.1002C203.04 71.3633 201.789 69.2227 200.296 68.3341L180.753 57.0653C179.259 56.1767 178.007 56.9037 178.007 58.6404V81.1782C178.007 82.9149 179.259 85.0556 180.753 85.9441L200.255 97.2129C201.749 98.1015 203.001 97.3745 203.001 95.6377L203.04 73.1002Z" fill="#FFAA88"/>
<path d="M251.979 88.4472L246.286 91.7188C244.913 92.5267 243.742 94.3846 243.54 96.0405V96.0809V96.2021V96.4848V103.028C243.499 100.524 242.167 98.0601 239.784 96.6868L226.986 89.2954C224.522 87.8818 221.616 88.003 219.354 89.3762L205.747 97.2118C204.254 98.0601 203.001 97.3734 203.001 95.6367V73.0989C203.001 71.3622 204.254 69.2217 205.747 68.333L225.248 57.0642C225.693 56.8219 226.097 56.7007 226.46 56.7007C227.349 56.7007 227.994 57.4277 227.994 58.6393V74.351C227.914 76.9764 229.287 79.6018 231.709 81.0155L244.509 88.4068C246.972 89.7801 249.757 89.6993 251.979 88.4472Z" fill="#C94314"/>
<path d="M203.04 148.791C203.04 147.054 201.789 144.913 200.296 144.024L180.753 132.756C179.259 131.867 178.007 132.594 178.007 134.331V156.869C178.007 158.605 179.259 160.746 180.753 161.634L200.255 172.903C201.749 173.792 203.001 173.065 203.001 171.328L203.04 148.791Z" fill="#FFAA88"/>
<path d="M228.035 156.869C228.035 158.605 226.784 160.746 225.289 161.634L205.787 172.903C204.293 173.792 203.042 173.065 203.042 171.328V148.791C203.042 147.054 204.293 144.913 205.787 144.024L225.289 132.756C226.784 131.867 228.035 132.594 228.035 134.331V156.869Z" fill="#C94314"/>
<path d="M293.566 96.4844V119.022C293.566 120.759 292.313 122.899 290.821 123.788L271.319 135.057C269.985 135.824 267.926 135.905 266.392 135.34C266.312 135.299 266.231 135.299 266.151 135.259C266.11 135.218 266.068 135.218 265.988 135.178C265.949 135.138 265.866 135.138 265.827 135.097L246.325 123.828C246.123 123.707 245.961 123.586 245.759 123.424C245.598 123.263 245.396 123.101 245.235 122.94C244.266 121.89 243.538 120.355 243.538 119.062V103.351C243.538 103.229 243.538 103.149 243.538 103.028V96.4844C243.538 96.4036 243.538 96.3228 243.538 96.2018C243.538 96.1614 243.538 96.121 243.538 96.0806V96.0402C243.701 94.3843 244.872 92.5261 246.284 91.7185L251.978 88.4468L265.786 80.4497C267.32 79.561 269.783 79.561 271.278 80.4497L290.779 91.7185C292.354 92.6069 293.566 94.7477 293.566 96.4844Z" fill="#F17736"/>
<path d="M268.573 133.482C268.573 135.097 267.522 135.824 266.149 135.259C266.11 135.219 266.068 135.219 265.988 135.178C265.949 135.138 265.866 135.138 265.827 135.097L246.325 123.829C246.123 123.707 245.961 123.586 245.759 123.425C245.598 123.263 245.396 123.102 245.235 122.94C244.266 121.89 243.538 120.355 243.538 119.063V103.351C243.538 103.23 243.538 103.149 243.538 103.028V96.4847C243.538 96.4039 243.538 96.3231 243.538 96.2019C243.538 96.1615 243.538 96.1211 243.538 96.0807V96.0403C243.74 94.6268 244.872 94.1016 246.284 94.9094L254.683 99.7561L265.827 106.178C267.361 107.067 268.573 109.207 268.573 110.944V133.482Z" fill="#FFAA88"/>
<path d="M293.566 16.7012V39.2388C293.566 40.9757 292.313 43.1162 290.821 44.0049L271.319 55.2737C269.985 56.0411 267.926 56.1219 266.392 55.5563C266.312 55.5159 266.231 55.5159 266.151 55.4757C266.11 55.4353 266.068 55.4353 265.988 55.3949C265.949 55.3545 265.866 55.3545 265.827 55.3141L246.325 44.0453C246.123 43.9241 245.961 43.8029 245.759 43.6413C245.598 43.4798 245.396 43.3182 245.235 43.1566C244.266 42.1066 243.538 40.5717 243.538 39.2792V23.5675C243.538 23.4463 243.538 23.3657 243.538 23.2444V16.7012C243.538 16.6204 243.538 16.5396 243.538 16.4186C243.538 16.3782 243.538 16.3378 243.538 16.2974V16.257C243.701 14.601 244.872 12.7429 246.284 11.9353L251.978 8.66365L265.786 0.666489C267.32 -0.222163 269.783 -0.222163 271.278 0.666489L290.779 11.9353C292.354 12.8237 293.566 14.9645 293.566 16.7012Z" fill="#F17736"/>
<path d="M267.662 31.5736C267.662 29.9159 266.432 27.8729 264.962 27.0247L245.78 16.2696C244.31 15.4216 243.08 16.1154 243.08 17.773V39.2833C243.08 40.9409 244.31 42.9841 245.78 43.832L264.962 54.5871C266.432 55.4353 267.662 54.7414 267.662 53.0838V31.5736Z" fill="#FFAA88"/>
<path d="M293.691 38.9886C293.691 40.7689 292.388 42.9634 290.831 43.8742L270.522 55.426C268.967 56.3369 267.662 55.5916 267.662 53.8113V30.7077C267.662 28.9272 268.967 26.7329 270.522 25.8219L290.831 14.2702C292.388 13.3593 293.691 14.1045 293.691 15.8848V38.9886Z" fill="#C94314"/>
<path d="M293.566 169.984V192.521C293.566 194.258 292.313 196.399 290.821 197.288L271.319 208.556C269.985 209.324 267.926 209.405 266.392 208.839C266.312 208.799 266.231 208.799 266.151 208.758C266.11 208.718 266.068 208.718 265.988 208.678C265.949 208.637 265.866 208.637 265.827 208.597L246.325 197.328C246.123 197.207 245.961 197.086 245.759 196.924C245.598 196.763 245.396 196.601 245.235 196.439C244.266 195.389 243.538 193.854 243.538 192.562V176.85C243.538 176.729 243.538 176.648 243.538 176.527V169.984C243.538 169.903 243.538 169.822 243.538 169.701C243.538 169.661 243.538 169.62 243.538 169.58V169.54C243.701 167.884 244.872 166.026 246.284 165.218L251.978 161.946L265.786 153.949C267.32 153.061 269.783 153.061 271.278 153.949L290.779 165.218C292.354 166.106 293.566 168.247 293.566 169.984Z" fill="#F17736"/>
<path d="M268.573 206.981C268.573 208.596 267.522 209.323 266.149 208.758C266.11 208.718 266.068 208.718 265.988 208.677C265.949 208.637 265.866 208.637 265.827 208.596L246.325 197.328C246.123 197.206 245.961 197.085 245.759 196.924C245.598 196.762 245.396 196.601 245.235 196.439C244.266 195.389 243.538 193.854 243.538 192.562V176.85C243.538 176.729 243.538 176.648 243.538 176.527V169.984C243.538 169.903 243.538 169.822 243.538 169.701C243.538 169.661 243.538 169.62 243.538 169.58V169.539C243.74 168.126 244.872 167.601 246.284 168.408L254.683 173.255L265.827 179.677C267.361 180.566 268.573 182.706 268.573 184.443V206.981Z" fill="#FFAA88"/>
<path d="M294.102 192.239C294.102 193.975 292.851 196.116 291.356 197.005L271.854 208.273C270.362 209.162 269.109 208.435 269.109 206.698V184.161C269.109 182.424 270.362 180.283 271.854 179.395L291.356 168.126C292.851 167.237 294.102 167.964 294.102 169.701V192.239Z" fill="#C94314"/>
<path d="M317.467 126.291L316.418 126.896L311.855 129.522C310.482 130.33 309.312 132.188 309.11 133.844V134.005V134.248V140.791C309.068 138.286 307.737 135.823 305.354 134.449L292.554 127.058C290.092 125.644 287.184 125.766 284.924 127.139L271.316 134.974C269.783 135.823 268.571 135.136 268.571 133.359V110.821C268.571 109.084 269.822 106.944 271.316 106.055L290.818 94.7864C292.313 93.898 293.564 94.6248 293.564 96.3617V112.073C293.484 114.699 294.856 117.324 297.279 118.738L310.078 126.129C312.46 127.583 315.247 127.543 317.467 126.291Z" fill="#C94314"/>
<path d="M338.869 100.362V115.145C338.869 117.972 340.444 120.436 342.745 121.688L356.353 129.524C357.845 130.412 359.099 132.553 359.099 134.29V156.827C359.099 158.564 357.845 160.705 356.353 161.593L336.851 172.862C335.478 173.629 333.338 173.71 331.844 173.104C331.763 173.064 331.722 173.064 331.642 173.024C331.561 172.983 331.44 172.943 331.359 172.862L311.858 161.593C311.493 161.391 311.13 161.068 310.808 160.745C309.837 159.695 309.112 158.16 309.112 156.827V141.156C309.112 141.035 309.112 140.954 309.112 140.833V134.29C309.112 134.209 309.112 134.128 309.112 134.047C309.112 134.007 309.112 133.926 309.112 133.886C309.273 132.23 310.444 130.331 311.858 129.564L316.42 126.939L317.469 126.333L318.803 125.565L325.424 121.728C325.585 121.647 325.707 121.567 325.868 121.486C327.927 120.153 329.3 117.851 329.3 115.185V100.402C329.3 97.5752 327.725 95.1114 325.424 93.8593L311.858 86.0236C310.363 85.135 309.112 82.9944 309.112 81.2577V58.6393C309.112 56.9025 310.363 54.7618 311.858 53.8732L331.359 42.6044C332.893 41.7158 335.356 41.7158 336.851 42.6044L356.353 53.8732C357.886 54.7618 359.099 56.9025 359.099 58.6393V81.1769C359.099 82.0653 358.775 83.0348 358.291 83.8829C357.806 84.7311 357.12 85.4986 356.353 85.9428L342.745 93.7785C340.444 95.071 338.869 97.5348 338.869 100.362Z" fill="#F17736"/>
<path d="M334.105 73.1002C334.105 71.3633 332.854 69.2227 331.359 68.3341L311.858 57.0653C310.363 56.1767 309.112 56.9037 309.112 58.6404V81.1782C309.112 82.9149 310.363 85.0556 311.858 85.9441L331.359 97.2129C332.854 98.1015 334.105 97.3745 334.105 95.6377V73.1002Z" fill="#FFAA88"/>
<path d="M359.096 81.1782C359.096 82.9149 357.845 85.0556 356.35 85.9441L336.849 97.2129C335.356 98.1015 334.103 97.3745 334.103 95.6377V73.1002C334.103 71.3633 335.356 69.2227 336.849 68.3341L356.35 57.0653C357.845 56.1767 359.096 56.9037 359.096 58.6404V81.1782Z" fill="#C94314"/>
<path d="M334.105 171.328C334.105 172.903 333.136 173.63 331.844 173.145C331.763 173.105 331.722 173.105 331.642 173.064C331.561 173.024 331.44 172.984 331.359 172.903L311.857 161.634C311.493 161.432 311.13 161.109 310.808 160.786C309.837 159.736 309.112 158.201 309.112 156.868V141.197C309.112 141.076 309.112 140.995 309.112 140.874V134.331C309.112 134.25 309.112 134.169 309.112 134.088C309.112 134.048 309.112 133.967 309.112 133.927C309.314 132.513 310.443 131.988 311.857 132.796L320.215 137.642L331.359 144.064C332.893 144.953 334.105 147.094 334.105 148.83V171.328Z" fill="#FFAA88"/>
<path d="M359.096 156.869C359.096 158.605 357.845 160.746 356.35 161.634L336.849 172.903C335.356 173.792 334.103 173.065 334.103 171.328V148.791C334.103 147.054 335.356 144.913 336.849 144.024L356.35 132.756C357.845 131.867 359.096 132.594 359.096 134.331V156.869Z" fill="#C94314"/>
</svg>
