<?xml version="1.0" standalone="no"?>
<!DOCTYPE svg PUBLIC "-//W3C//DTD SVG 20010904//EN"
 "http://www.w3.org/TR/2001/REC-SVG-20010904/DTD/svg10.dtd">
<svg version="1.0" xmlns="http://www.w3.org/2000/svg"
 width="468.000000pt" height="468.000000pt" viewBox="0 0 468.000000 468.000000"
 preserveAspectRatio="xMidYMid meet">
<metadata>
Created by potrace 1.11, written by Peter Selinger 2001-2013
</metadata>
<g transform="translate(0.000000,468.000000) scale(0.100000,-0.100000)"
fill="#000000" stroke="none">
<path d="M2080 3805 l0 -325 185 0 185 0 0 60 0 60 -115 0 -115 0 0 80 0 80
105 0 105 0 0 60 0 60 -105 0 -105 0 0 70 0 70 115 0 115 0 0 55 0 55 -185 0
-185 0 0 -325z"/>
<path d="M590 3795 l0 -325 67 0 66 0 -6 242 -7 243 89 -158 c50 -87 111 -196
137 -242 l48 -85 88 0 88 0 0 325 0 325 -60 0 -60 0 0 -242 0 -243 -137 240
-138 240 -87 3 -88 3 0 -326z"/>
<path d="M3430 4060 l0 -60 85 0 85 0 0 -265 0 -265 70 0 70 0 0 265 0 264 88
3 87 3 0 55 0 55 -242 3 -243 2 0 -60z"/>
<path d="M677 3253 c133 -2 353 -2 490 0 136 1 28 2 -242 2 -269 0 -381 -1
-248 -2z"/>
<path d="M2067 3253 c133 -2 353 -2 490 0 136 1 28 2 -242 2 -269 0 -381 -1
-248 -2z"/>
<path d="M3477 3253 c133 -2 353 -2 490 0 136 1 28 2 -242 2 -269 0 -381 -1
-248 -2z"/>
<path d="M818 2691 c-78 -25 -122 -75 -134 -148 -14 -90 35 -159 161 -228 116
-63 136 -94 90 -140 -32 -33 -97 -33 -190 0 -38 14 -71 25 -72 25 -2 0 -3 -27
-3 -60 0 -71 11 -81 105 -100 139 -29 269 20 304 113 15 40 14 113 -3 146 -20
38 -76 86 -139 117 -84 42 -117 71 -117 103 0 15 8 35 18 44 23 21 95 22 152
2 23 -8 46 -15 50 -15 7 0 53 101 48 105 -46 31 -215 54 -270 36z"/>
<path d="M2050 2365 l0 -325 70 0 70 0 0 119 c0 117 0 119 26 136 22 14 28 15
35 4 5 -8 41 -68 82 -134 l74 -120 78 -3 c60 -2 76 0 72 10 -2 7 -52 89 -110
182 l-105 170 76 98 c43 55 92 119 110 144 l34 44 -75 0 -76 0 -93 -118 c-51
-66 -101 -130 -110 -143 -16 -23 -17 -18 -17 119 l-1 142 -70 0 -70 0 0 -325z"/>
<path d="M3490 2366 l0 -326 70 0 70 0 0 125 0 125 34 0 c32 0 36 -5 107 -121
40 -67 78 -123 85 -126 6 -2 40 -3 76 -1 l65 3 -90 138 -90 138 43 36 c73 63
90 149 48 233 -17 34 -35 51 -73 70 -45 23 -63 25 -197 28 l-148 4 0 -326z
m235 204 c50 -11 67 -34 63 -84 -4 -50 -35 -74 -106 -83 l-52 -6 0 92 0 91 28
0 c15 0 45 -5 67 -10z"/>
<path d="M795 1253 c-20 -52 -215 -625 -215 -634 0 -6 27 -9 72 -7 l72 3 23
78 24 77 114 0 114 0 23 -77 24 -78 72 -3 c40 -2 72 1 72 5 0 4 -50 153 -111
331 l-112 322 -82 0 c-70 0 -84 -3 -90 -17z m160 -335 l7 -28 -76 0 c-42 0
-76 3 -76 8 0 4 16 61 35 126 19 66 35 122 36 125 1 8 66 -195 74 -231z"/>
<path d="M2135 1258 c-3 -7 -4 -155 -3 -328 l3 -315 65 0 65 0 3 128 3 127
104 0 105 0 0 60 0 60 -105 0 -105 0 0 80 0 80 115 0 116 0 -3 58 -3 57 -178
3 c-137 2 -179 0 -182 -10z"/>
<path d="M3535 1257 c-3 -7 -4 -154 -3 -327 l3 -315 198 -3 197 -2 0 60 0 60
-130 0 -130 0 0 270 0 270 -65 0 c-44 0 -67 -4 -70 -13z"/>
</g>
</svg>
